<?xml version="1.0" encoding="utf-8"?>
<!-- Generator: Adobe Illustrator 16.0.0, SVG Export Plug-In . SVG Version: 6.00 Build 0)  -->
<!DOCTYPE svg PUBLIC "-//W3C//DTD SVG 1.1//EN" "http://www.w3.org/Graphics/SVG/1.1/DTD/svg11.dtd">
<svg version="1.1" id="Layer_1" xmlns="http://www.w3.org/2000/svg" xmlns:xlink="http://www.w3.org/1999/xlink" x="0px" y="0px"
	 width="1024px" height="1024px" viewBox="0 0 1024 1024" enable-background="new 0 0 1024 1024" xml:space="preserve">
<path id="Rectangle_7_1_" fill="#282561" d="M316.496,1023.873c-116.102,0-182.861,0-249.619-66.744
	C0.129,890.375,0.129,823.611,0.129,707.506V316.488c0-116.102,0-182.859,66.748-249.613C133.635,0.127,200.395,0.127,316.496,0.127
	h391.008c116.111,0,182.861,0,249.609,66.748c66.758,66.754,66.758,133.512,66.758,249.613v391.018
	c0,116.105,0,182.869-66.758,249.623c-66.748,66.744-133.498,66.744-249.609,66.744H316.496z"/>
<g>
	<path opacity="0.4" fill="#F0EFF4" d="M497,497V30.127H316.496c-113.477,0-170.436,0-228.406,57.961
		c-57.961,57.967-57.961,114.926-57.961,228.4V497H497z"/>
	<path opacity="0.7" fill="#F0EFF4" d="M527,497h466.871V316.488c0-113.475,0-170.432-57.971-228.4
		c-57.963-57.961-114.92-57.961-228.396-57.961H527V497z"/>
	<path opacity="0.4" fill="#F0EFF4" d="M527,527v466.873h180.504c113.477,0,170.436,0,228.396-57.957
		c57.971-57.967,57.971-114.928,57.971-228.41V527H527z"/>
	<path opacity="0.4" fill="#F0EFF4" d="M497,527H30.129v180.506c0,113.482,0,170.443,57.959,228.408
		c57.973,57.959,114.93,57.959,228.408,57.959H497V527z"/>
</g>
<path fill="#282561" d="M905.268,281.137c49.358,30.512,71.82,53.246,67.389,68.221c-3.327,9.438-15.536,14.143-36.606,14.143
	c-46.047,0-110.107-17.742-192.182-53.244c-58.238-25.504-106.491-52.544-144.762-81.117c-38.27-28.558-55.18-50.047-50.75-64.477
	c3.871-12.192,16.08-16.91,36.607-14.143c19.406,2.781,39.645,7.773,60.732,14.975c-1.12,1.664-4.992,7.774-11.647,18.303
	c-20.527-4.43-36.896-6.654-49.085-6.654h-4.992c0.543,0.561,1.52,1.664,2.912,3.327c1.375,1.664,2.622,3.057,3.743,4.16
	c9.423,9.438,22.175,19.695,38.271,30.782c33.821,23.855,77.084,47.422,129.785,70.717c36.606,16.093,72.092,28.848,106.492,38.27
	c29.949,8.32,54.908,12.479,74.875,12.479h4.992c-0.561-0.546-1.537-1.663-2.912-3.327c-1.393-1.664-2.64-3.042-3.744-4.16
	c-9.439-9.424-20.799-18.85-34.109-28.287C903.043,293.345,904.708,286.689,905.268,281.137z M627.394,265.33
	c34.382,21.085,71.548,40.221,111.482,57.405c38.812,16.639,73.756,29.403,104.827,38.271
	c-23.855,19.42-51.581,29.117-83.196,29.117c-35.502,0-66.014-12.062-91.516-36.189C643.472,329.807,629.601,300.271,627.394,265.33
	z M636.545,207.925c0.542-3.327,1.936-6.37,4.159-9.151c7.76-16.64,19.967-31.887,36.607-45.758
	c23.838-19.406,51.581-29.119,83.195-29.119c35.484,0,65.996,12.063,91.516,36.189c25.502,24.128,39.374,53.662,41.598,88.604v8.32
	c0,17.199-3.057,33.564-9.152,49.086c-0.559,3.328-1.951,6.384-4.158,9.152c-4.449-0.547-9.713-1.936-15.808-4.16
	c-34.942-9.984-69.886-22.463-104.827-37.439C712.524,253.683,671.487,231.779,636.545,207.925z"/>
<path fill="#282561" d="M178.705,222.067c5.534,14.431,6.927,27.871,4.159,40.351c-2.784,12.479-8.88,20.943-18.303,25.375
	c-3.889,1.664-8.049,2.496-12.479,2.496c-8.319,0-16.368-3.328-24.127-9.984c-7.776-6.656-13.871-15.246-18.303-25.791
	c-7.199-16.639-8.03-32.446-2.496-47.422c3.328-10.528,9.151-17.471,17.472-20.799c3.327-1.663,7.198-2.496,11.646-2.496
	c8.32,0,16.496,3.473,24.543,10.4C168.849,201.139,174.817,210.42,178.705,222.067z M190.353,282.801
	c22.174-26.062,46.589-39.102,73.213-39.102c26.623,0,51.021,13.039,73.211,39.102c22.174,26.077,33.279,54.363,33.279,84.859
	c0,18.305-6.112,31.344-18.304,39.104c-9.44,6.655-21.087,9.982-34.941,9.982c-4.448,0-8.465-0.416-12.064-1.248
	c-3.616-0.831-6.239-1.662-7.903-2.496c-1.664-0.831-4.16-2.35-7.487-4.576c-3.327-2.209-5.281-3.598-5.823-4.158
	c-8.881-5.538-15.536-8.32-19.967-8.32c-4.449,0-11.105,2.782-19.968,8.32c-0.561,0.561-2.496,1.949-5.823,4.158
	c-3.328,2.227-5.824,3.745-7.488,4.576c-1.664,0.834-4.304,1.665-7.902,2.496c-3.617,0.832-7.633,1.248-12.064,1.248
	c-13.872,0-25.52-3.327-34.941-9.982c-12.209-7.76-18.305-20.799-18.305-39.104C157.073,337.164,168.161,308.878,190.353,282.801z
	 M215.312,219.572c-11.648-0.547-21.92-6.37-30.783-17.471c-8.88-11.088-14.144-24.398-15.807-39.935
	c-1.664-19.968,2.768-36.606,13.311-49.917c7.199-9.424,15.808-14.415,25.791-14.976h4.992c11.086,0.561,20.383,5.968,27.871,16.224
	c7.486,10.269,12.062,23.438,13.727,39.518c2.768,22.191-0.832,39.662-10.815,52.413c-7.216,8.319-14.976,12.765-23.295,13.312
	c-0.561,0-1.392,0.145-2.496,0.416C216.687,219.441,215.854,219.572,215.312,219.572z M306.827,218.74
	c-8.32-0.547-16.097-4.992-23.295-13.312c-9.984-12.751-13.601-30.222-10.816-52.413c1.664-16.079,6.24-29.249,13.728-39.518
	c7.487-10.256,16.767-15.663,27.871-16.224h5.823c9.424,0.561,17.742,5.552,24.959,14.976
	c10.527,13.311,14.975,29.949,13.312,49.917c-1.664,15.536-6.944,28.702-15.808,39.519c-8.879,10.814-19.135,16.508-30.782,17.055
	H306.827z M419.974,207.092c5.533,14.976,4.703,30.783-2.496,47.422c-4.449,10.545-10.545,19.135-18.303,25.791
	c-7.777,6.656-15.808,9.984-24.128,9.984c-4.448,0-8.608-0.832-12.479-2.496c-9.44-4.432-15.535-12.896-18.303-25.375
	c-2.785-12.479-1.393-25.92,4.16-40.351c3.871-11.647,9.838-20.929,17.887-27.87c8.031-6.928,16.223-10.4,24.543-10.4
	c4.432,0,8.32,0.833,11.647,2.496C410.821,189.621,416.646,196.563,419.974,207.092z"/>
<path fill="#282561" d="M675.576,725.494c5.534,14.431,6.927,27.871,4.159,40.351c-2.784,12.479-8.88,20.943-18.303,25.375
	c-3.889,1.664-8.049,2.496-12.479,2.496c-8.319,0-16.368-3.328-24.127-9.984c-7.776-6.656-13.871-15.246-18.303-25.791
	c-7.199-16.639-8.03-32.446-2.496-47.422c3.328-10.528,9.151-17.471,17.472-20.799c3.327-1.663,7.198-2.496,11.646-2.496
	c8.32,0,16.496,3.473,24.543,10.4C665.72,704.565,671.688,713.847,675.576,725.494z M687.224,786.228
	c22.174-26.062,46.589-39.102,73.213-39.102c26.623,0,51.021,13.039,73.211,39.102c22.174,26.077,33.279,54.363,33.279,84.859
	c0,18.305-6.112,31.344-18.304,39.104c-9.44,6.655-21.087,9.982-34.941,9.982c-4.448,0-8.465-0.416-12.064-1.248
	c-3.616-0.831-6.239-1.662-7.903-2.496c-1.664-0.831-4.16-2.35-7.487-4.576c-3.327-2.209-5.281-3.598-5.823-4.158
	c-8.881-5.538-15.536-8.32-19.967-8.32c-4.449,0-11.105,2.782-19.968,8.32c-0.561,0.561-2.496,1.949-5.823,4.158
	c-3.328,2.227-5.824,3.745-7.488,4.576c-1.664,0.834-4.304,1.665-7.902,2.496c-3.617,0.832-7.633,1.248-12.064,1.248
	c-13.872,0-25.52-3.327-34.941-9.982c-12.209-7.76-18.305-20.799-18.305-39.104C653.944,840.591,665.032,812.305,687.224,786.228z
	 M712.183,722.999c-11.648-0.547-21.92-6.37-30.783-17.471c-8.88-11.088-14.144-24.398-15.807-39.935
	c-1.664-19.968,2.768-36.606,13.311-49.917c7.199-9.424,15.808-14.415,25.791-14.976h4.992c11.086,0.561,20.383,5.968,27.871,16.224
	c7.486,10.269,12.062,23.438,13.727,39.518c2.768,22.191-0.832,39.662-10.815,52.413c-7.216,8.319-14.976,12.765-23.295,13.312
	c-0.561,0-1.392,0.145-2.496,0.416C713.558,722.868,712.726,722.999,712.183,722.999z M803.698,722.167
	c-8.32-0.547-16.097-4.992-23.295-13.312c-9.984-12.751-13.601-30.222-10.816-52.413c1.664-16.079,6.24-29.249,13.728-39.518
	c7.487-10.256,16.767-15.663,27.871-16.224h5.823c9.424,0.561,17.742,5.552,24.959,14.976
	c10.527,13.311,14.975,29.949,13.312,49.917c-1.664,15.536-6.944,28.702-15.808,39.519c-8.879,10.814-19.135,16.508-30.782,17.055
	H803.698z M916.845,710.519c5.533,14.976,4.703,30.783-2.496,47.422c-4.449,10.545-10.545,19.135-18.303,25.791
	c-7.777,6.656-15.808,9.984-24.128,9.984c-4.448,0-8.608-0.832-12.479-2.496c-9.44-4.432-15.535-12.896-18.303-25.375
	c-2.785-12.479-1.393-25.92,4.16-40.351c3.871-11.647,9.838-20.929,17.887-27.87c8.031-6.928,16.223-10.4,24.543-10.4
	c4.432,0,8.32,0.833,11.647,2.496C907.692,693.048,913.517,699.99,916.845,710.519z"/>
<path fill="#282561" d="M178.704,726.495c5.534,14.431,6.927,27.871,4.159,40.351c-2.784,12.479-8.88,20.943-18.303,25.375
	c-3.889,1.664-8.049,2.496-12.479,2.496c-8.319,0-16.368-3.328-24.127-9.984c-7.776-6.656-13.871-15.246-18.303-25.791
	c-7.199-16.639-8.03-32.446-2.496-47.422c3.328-10.528,9.151-17.471,17.472-20.799c3.327-1.663,7.198-2.496,11.646-2.496
	c8.32,0,16.496,3.473,24.543,10.4C168.848,705.566,174.816,714.848,178.704,726.495z M190.352,787.229
	c22.174-26.062,46.589-39.102,73.213-39.102c26.623,0,51.021,13.039,73.211,39.102c22.174,26.077,33.279,54.363,33.279,84.859
	c0,18.305-6.112,31.344-18.304,39.104c-9.44,6.655-21.087,9.982-34.941,9.982c-4.448,0-8.465-0.416-12.064-1.248
	c-3.616-0.831-6.239-1.662-7.903-2.496c-1.664-0.831-4.16-2.35-7.487-4.576c-3.327-2.209-5.281-3.598-5.823-4.158
	c-8.881-5.538-15.536-8.32-19.967-8.32c-4.449,0-11.105,2.782-19.968,8.32c-0.561,0.561-2.496,1.949-5.823,4.158
	c-3.328,2.227-5.824,3.745-7.488,4.576c-1.664,0.834-4.304,1.665-7.902,2.496c-3.617,0.832-7.633,1.248-12.064,1.248
	c-13.872,0-25.52-3.327-34.941-9.982c-12.209-7.76-18.305-20.799-18.305-39.104C157.072,841.592,168.16,813.306,190.352,787.229z
	 M215.311,724c-11.648-0.547-21.92-6.37-30.783-17.471c-8.88-11.088-14.144-24.398-15.807-39.935
	c-1.664-19.968,2.768-36.606,13.311-49.917c7.199-9.424,15.808-14.415,25.791-14.976h4.992c11.086,0.561,20.383,5.968,27.871,16.224
	c7.486,10.269,12.062,23.438,13.727,39.518c2.768,22.191-0.832,39.662-10.815,52.413c-7.216,8.319-14.976,12.765-23.295,13.312
	c-0.561,0-1.392,0.145-2.496,0.416C216.686,723.869,215.854,724,215.311,724z M306.826,723.168
	c-8.32-0.547-16.097-4.992-23.295-13.312c-9.984-12.751-13.601-30.222-10.816-52.413c1.664-16.079,6.24-29.249,13.728-39.518
	c7.487-10.256,16.767-15.663,27.871-16.224h5.823c9.424,0.561,17.742,5.552,24.959,14.976
	c10.527,13.311,14.975,29.949,13.312,49.917c-1.664,15.536-6.944,28.702-15.808,39.519c-8.879,10.814-19.135,16.508-30.782,17.055
	H306.826z M419.973,711.52c5.533,14.976,4.703,30.783-2.496,47.422c-4.449,10.545-10.545,19.135-18.303,25.791
	c-7.777,6.656-15.808,9.984-24.128,9.984c-4.448,0-8.608-0.832-12.479-2.496c-9.44-4.432-15.535-12.896-18.303-25.375
	c-2.785-12.479-1.393-25.92,4.16-40.351c3.871-11.647,9.838-20.929,17.887-27.87c8.031-6.928,16.223-10.4,24.543-10.4
	c4.432,0,8.32,0.833,11.647,2.496C410.82,694.049,416.645,700.991,419.973,711.52z"/>
<circle fill="#BFBACC" cx="512" cy="527" r="155.865"/>
<path fill="#282561" d="M374.112,389.111c37.976-37.979,83.948-56.982,137.886-56.982c53.94,0,99.896,19.004,137.89,56.982
	c37.976,37.995,56.983,83.951,56.983,137.889s-19.008,99.909-56.983,137.889c-37.994,37.979-83.949,56.982-137.89,56.982
	c-53.938,0-99.91-19.004-137.886-56.982c-37.997-37.979-56.983-83.951-56.983-137.889S336.115,427.106,374.112,389.111z
	 M572.027,505.251c6.959-9.854,10.438-20.293,10.438-31.318c0-19.139-7.26-34.212-21.748-45.238
	c-13.919-10.438-31.904-15.659-53.937-15.659c-16.246,0-29.883,3.779-40.891,11.31c-16.243,11.025-24.357,30.747-24.357,59.157
	h42.628c0-12.18,1.153-20.009,3.48-23.489c5.218-8.699,12.747-13.049,22.62-13.049c9.851,0,17.096,3.196,21.748,9.569
	c4.633,6.389,6.957,13.049,6.957,20.009c0,4.649-2.324,10.44-6.957,17.399c-1.174,2.326-4.068,5.22-8.701,8.699
	c-15.09,8.7-25.229,17.4-30.449,26.1c-4.651,7.545-7.545,19.438-8.698,35.668c0,2.326,1.153,3.479,3.48,3.479h33.927
	c2.896,0,4.352-1.153,4.352-3.479c0-6.374,0.566-11.881,1.74-16.529c1.737-5.22,5.218-10.14,10.438-14.789l12.18-7.83
	C561.284,517.146,568.547,510.471,572.027,505.251z M529.397,616.606c0.569-7.531-1.605-13.92-6.523-19.14
	c-4.937-5.22-11.178-7.83-18.705-7.83c-6.958,0-13.047,2.326-18.268,6.96c-5.221,4.649-7.829,10.738-7.829,18.27
	c0,7.545,2.307,13.783,6.957,18.704c4.635,4.936,10.441,7.395,17.399,7.395c7.53,0,13.921-2.175,19.14-6.524
	C526.789,630.091,529.397,624.151,529.397,616.606z"/>
</svg>
